<?xml version="1.0" standalone="no"?>
<!DOCTYPE svg PUBLIC "-//W3C//DTD SVG 20010904//EN"
 "http://www.w3.org/TR/2001/REC-SVG-20010904/DTD/svg10.dtd">
<svg version="1.0" xmlns="http://www.w3.org/2000/svg"
 width="192.000000pt" height="192.000000pt" viewBox="0 0 192.000000 192.000000"
 preserveAspectRatio="xMidYMid meet">
<g transform="translate(0.000000,192.000000) scale(0.100000,-0.100000)"
fill="currentColor" stroke="none">
<path d="M763 1913 c-18 -2 -33 -7 -33 -11 0 -4 -11 -8 -24 -8 -52 -3 -206
-87 -206 -112 0 -7 -4 -10 -10 -7 -5 3 -10 1 -10 -6 0 -7 -3 -10 -6 -7 -6 7
-104 -91 -104 -103 0 -5 -12 -21 -26 -36 -29 -31 -72 -119 -89 -183 -1 -3 -5
-13 -10 -23 -4 -10 -8 -31 -9 -47 0 -17 -4 -30 -9 -30 -8 0 -8 -3 -8 -177 -1
-136 0 -151 8 -173 4 -8 7 -22 7 -30 1 -8 7 -14 15 -12 12 3 12 0 2 -12 -10
-12 -7 -24 13 -64 14 -27 22 -52 19 -56 -4 -3 -2 -6 4 -6 6 0 14 -11 17 -25 4
-14 11 -25 16 -25 6 0 10 -6 10 -14 0 -13 27 -31 42 -28 4 1 5 -4 2 -12 -9
-22 21 -39 48 -26 21 10 21 10 5 -3 -16 -14 -16 -16 6 -37 13 -13 26 -21 29
-19 3 2 16 -5 29 -16 13 -12 19 -14 14 -5 -4 8 3 5 16 -6 28 -25 94 -48 109
-39 5 3 10 1 10 -5 0 -8 36 -10 128 -7 133 4 182 11 193 28 3 6 10 9 15 8 21
-4 35 2 29 11 -3 5 0 7 8 4 8 -3 18 -1 22 5 15 25 26 9 20 -28 -4 -24 -2 -48
5 -61 7 -13 8 -20 2 -16 -16 10 -22 -6 -28 -76 -9 -105 -12 -131 -25 -192 -9
-45 -10 -63 -1 -77 10 -15 9 -19 0 -17 -9 2 -13 -10 -13 -35 0 -20 -3 -37 -7
-37 -5 0 -8 -7 -8 -16 0 -8 4 -13 9 -10 5 4 7 -3 4 -14 -5 -20 0 -20 215 -20
136 0 223 4 227 10 11 18 29 122 40 225 3 33 8 76 11 95 8 55 16 123 17 152 1
15 5 24 9 22 4 -3 9 14 10 38 1 24 3 59 4 78 1 19 5 43 9 52 4 9 4 21 1 27 -4
5 -2 12 3 15 5 3 12 43 16 88 4 46 9 92 12 103 7 29 15 104 17 150 0 22 5 43
9 46 5 3 10 30 12 60 2 30 6 61 9 69 3 8 7 38 11 65 3 28 12 97 21 155 8 58
16 128 17 157 1 28 5 49 10 46 4 -2 8 15 9 39 3 77 4 83 11 95 4 7 6 23 3 37
-3 14 0 28 5 31 5 4 9 15 9 26 0 19 -7 20 -190 19 -137 -1 -190 -5 -192 -13
-2 -21 -5 -32 -11 -47 -3 -8 -7 -24 -9 -34 -2 -11 -11 -20 -21 -22 -11 -1 -16
0 -13 3 8 8 -62 73 -79 73 -8 0 -15 5 -15 11 0 6 -7 8 -16 5 -10 -4 -13 -2 -8
6 5 7 0 9 -14 6 -12 -4 -20 -3 -17 1 15 25 -229 40 -362 24z m276 -420 c-13
-15 -11 -16 13 -11 15 3 25 1 22 -4 -3 -4 1 -14 8 -22 28 -29 54 -61 56 -71 8
-33 15 -45 24 -39 5 4 5 -4 -2 -16 -11 -21 -10 -22 6 -16 15 6 17 5 7 -5 -7
-7 -13 -29 -13 -49 0 -20 -6 -60 -14 -90 -8 -30 -12 -58 -10 -62 2 -3 0 -9 -6
-13 -6 -4 -8 -11 -4 -16 3 -5 2 -8 -3 -7 -10 3 -78 -63 -78 -76 0 -5 -9 -10
-20 -11 -11 -1 -37 -7 -59 -14 -34 -12 -89 -11 -148 1 -9 2 -26 12 -38 23 -11
10 -20 14 -20 9 0 -5 -9 6 -20 24 -11 17 -25 32 -30 32 -6 0 -8 5 -5 10 3 6 1
10 -6 10 -7 0 -10 3 -7 6 4 3 2 20 -3 37 -8 27 -14 119 -9 137 1 3 3 12 5 20
6 27 45 109 55 115 6 4 8 11 5 16 -4 5 0 9 7 9 7 0 19 9 25 20 11 17 10 19 -5
14 -14 -5 -14 -4 -2 4 8 6 17 9 22 6 4 -3 26 5 48 16 32 17 57 21 116 19 41
-1 77 1 81 5 13 13 15 5 2 -11z m-464 -913 c3 -6 -1 -7 -9 -4 -18 7 -21 14 -7
14 6 0 13 -4 16 -10z"/>
</g>
</svg>
